<svg xmlns="http://www.w3.org/2000/svg" width="200" height="200" viewBox="0 0 200 200" version="1.1"><path d="M 160.500 2.002 C 154.944 3.207, 153.241 4.913, 144.764 17.772 C 140.117 24.820, 129.831 38.582, 121.907 48.355 C 113.983 58.127, 102.669 72.282, 96.765 79.811 C 77.382 104.527, 77.577 104.368, 72.817 99.250 C 68.343 94.440, 67.239 91.820, 63.443 77 C 59.835 62.913, 57.362 56, 55.931 56 C 55.547 56, 54.998 55.100, 54.710 54 C 54.423 52.900, 53.470 52, 52.594 52 C 51.717 52, 51 51.580, 51 51.067 C 51 50.258, 47.791 48.693, 45.833 48.549 C 45.467 48.522, 44.829 48.162, 44.417 47.750 C 43.299 46.632, 36.215 46.844, 35.490 48.016 C 35.144 48.575, 34.490 48.803, 34.036 48.522 C 32.554 47.606, 32.260 50.282, 32.169 65.500 C 32.062 83.672, 33.136 89.500, 42.384 120.897 C 46.239 133.984, 46.218 134.201, 39.401 151.854 C 35.710 161.409, 35.548 161.630, 22.211 175.200 C 12.025 185.566, 8.911 189.325, 9.417 190.644 C 9.954 192.043, 12.846 189.633, 24.041 178.459 C 37.247 165.278, 38.189 164.073, 41.583 156.015 C 43.556 151.332, 46.028 144.180, 47.077 140.121 C 49.261 131.670, 48.983 129.745, 42.373 107.595 C 39.427 97.726, 39.013 95.268, 39.947 93.216 C 40.567 91.855, 40.840 90.507, 40.553 90.220 C 40.266 89.933, 40.768 89.159, 41.668 88.501 C 43.917 86.856, 42.597 85.163, 39.524 85.751 C 38.044 86.034, 37 85.771, 37 85.117 C 37 84.502, 37.675 84, 38.500 84 C 40.712 84, 40.324 81.898, 38 81.290 C 35.571 80.654, 35.308 76.819, 37.566 74.945 C 42.434 70.905, 42.912 64.625, 39.038 55.588 L 37.071 51 40.068 51 C 44.418 51, 49.224 53.289, 52.133 56.746 C 53.732 58.647, 55.867 63.968, 57.904 71.132 C 65.031 96.192, 64.770 95.528, 69.587 100.885 C 72.488 104.112, 75.002 106, 76.398 106 C 80.037 106, 84.528 101.885, 91.762 91.923 C 95.526 86.740, 106.978 72.292, 117.211 59.815 C 134.608 38.605, 145.185 24.516, 152.801 12.410 C 155.740 7.739, 159.259 4.994, 162.297 5.004 C 162.959 5.006, 161.925 5.953, 160 7.110 C 155.430 9.855, 152.081 13.925, 152.036 16.790 C 151.987 19.924, 155.488 26.528, 158.209 28.434 C 161.574 30.791, 164.543 30.332, 167.325 27.025 C 171.162 22.465, 172.400 17.759, 170.947 13.250 C 170.283 11.188, 169.293 8.938, 168.747 8.250 C 167.068 6.134, 168.800 6.869, 170.961 9.189 C 174.046 12.500, 173.617 18.268, 169.708 26 C 165.617 34.093, 160.771 41.432, 143.629 65.500 C 121.168 97.034, 114.720 106.738, 115.446 107.913 C 116.468 109.566, 117.312 108.740, 123.299 100.237 C 130.945 89.375, 133.367 87, 136.797 87 C 142.197 87, 146.557 94.820, 146.111 103.702 C 146.050 104.918, 143.705 108.200, 140.876 111.029 C 137.059 114.846, 136.041 116.441, 136.886 117.286 C 137.730 118.130, 139.490 116.963, 143.788 112.709 C 146.962 109.569, 150.029 107, 150.605 107 C 153.832 107, 159 116.239, 159 122.010 C 159 125.570, 158.331 126.827, 154 131.406 C 151.250 134.314, 149 136.987, 149 137.347 C 149 139.189, 152.552 137.533, 156.598 133.803 C 161.828 128.982, 163.034 129.195, 166.792 135.596 C 169.640 140.448, 169.423 148.596, 166.334 152.791 C 165.237 154.281, 159.200 158.941, 152.920 163.147 C 146.639 167.353, 136.811 174.945, 131.080 180.018 C 120.581 189.312, 112.899 194.799, 106.159 197.817 L 102.500 199.455 105.676 199.785 C 111.146 200.354, 120.955 194.059, 136.500 180.005 C 140.900 176.026, 149.517 169.469, 155.649 165.432 C 169.333 156.424, 171.328 153.881, 171.841 144.800 C 172.175 138.893, 171.889 137.486, 169.537 133.472 C 168.059 130.952, 165.856 128.436, 164.640 127.882 C 162.778 127.034, 162.424 126.053, 162.399 121.687 C 162.365 115.570, 159.546 109.478, 154.967 105.626 C 153.251 104.182, 151.489 103, 151.051 103 C 150.614 103, 149.961 101.159, 149.601 98.908 C 148.343 91.038, 143.015 83.542, 138.181 82.838 C 136.055 82.528, 136.880 81.082, 148.069 65.500 C 175.400 27.437, 179.909 18.139, 175.408 9.117 C 172.782 3.851, 166.280 0.749, 160.500 2.002 M 159.130 11.544 C 154.111 15.767, 154.154 19.101, 159.299 24.750 C 161.920 27.628, 163.565 27.594, 165.512 24.623 C 168.318 20.339, 168.854 16.693, 167.264 12.706 C 165.494 8.268, 163.382 7.966, 159.130 11.544 M 130.278 52.954 C 130.559 54.028, 130.175 55.715, 129.426 56.704 C 128.677 57.692, 128.049 58.836, 128.032 59.247 C 127.973 60.619, 135.213 68, 136.616 68 C 138.340 68, 138.413 65.841, 136.750 64.066 C 135.722 62.968, 135.834 62.909, 137.385 63.731 C 138.828 64.496, 139.725 64.275, 141.216 62.784 C 143.105 60.895, 143.108 60.777, 141.331 58.811 C 140.324 57.696, 139.636 55.961, 139.802 54.955 C 140.174 52.707, 137.217 51, 132.949 51 C 130.284 51, 129.850 51.318, 130.278 52.954 M 35.536 63.500 C 35.927 67.350, 36.403 70.675, 36.595 70.889 C 36.787 71.102, 37.381 70.128, 37.915 68.724 C 38.937 66.035, 37.696 59.387, 35.820 57.500 C 35.160 56.837, 35.064 58.858, 35.536 63.500 M 104.506 87.990 C 103.717 89.267, 108.204 95.504, 110.980 96.989 C 114.575 98.913, 114.254 96.024, 110.393 91.712 C 106.067 86.880, 105.438 86.482, 104.506 87.990" stroke="none" fill="#1e1b12" fill-rule="evenodd"/><path d="M 158.259 6.217 C 157.026 6.811, 154.573 9.593, 152.808 12.399 C 145.184 24.518, 134.612 38.600, 117.211 59.815 C 106.978 72.292, 95.526 86.740, 91.762 91.923 C 84.528 101.885, 80.037 106, 76.398 106 C 75.002 106, 72.488 104.112, 69.587 100.885 C 64.770 95.528, 65.031 96.192, 57.904 71.132 C 55.867 63.968, 53.732 58.647, 52.133 56.746 C 49.224 53.289, 44.418 51, 40.068 51 L 37.071 51 39.038 55.588 C 42.912 64.625, 42.434 70.905, 37.566 74.945 C 35.308 76.819, 35.571 80.654, 38 81.290 C 40.324 81.898, 40.712 84, 38.500 84 C 37.675 84, 37 84.502, 37 85.117 C 37 85.771, 38.044 86.034, 39.524 85.751 C 42.597 85.163, 43.917 86.856, 41.668 88.501 C 40.768 89.159, 40.266 89.933, 40.553 90.220 C 40.840 90.507, 40.567 91.855, 39.947 93.216 C 39.013 95.268, 39.427 97.727, 42.371 107.595 C 48.259 127.332, 49.051 131.645, 47.848 137.424 C 47.267 140.216, 44.977 147.225, 42.758 153 L 38.724 163.500 24.824 177.581 L 10.925 191.662 24.860 192.882 C 32.524 193.554, 49.979 194.739, 63.648 195.517 C 78.911 196.385, 90.922 197.560, 94.778 198.562 C 100.900 200.153, 101.173 200.139, 105.740 197.992 C 113.703 194.249, 120.250 189.605, 131.080 180.018 C 136.811 174.945, 146.639 167.353, 152.920 163.147 C 159.200 158.941, 165.237 154.281, 166.334 152.791 C 169.423 148.596, 169.640 140.448, 166.792 135.596 C 163.034 129.195, 161.828 128.982, 156.598 133.803 C 152.552 137.533, 149 139.189, 149 137.347 C 149 136.987, 151.250 134.314, 154 131.406 C 158.331 126.827, 159 125.570, 159 122.010 C 159 116.239, 153.832 107, 150.605 107 C 150.029 107, 146.962 109.569, 143.788 112.709 C 139.490 116.963, 137.730 118.130, 136.886 117.286 C 136.041 116.441, 137.059 114.846, 140.876 111.029 C 143.705 108.200, 146.050 104.918, 146.111 103.702 C 146.557 94.820, 142.197 87, 136.797 87 C 133.367 87, 130.945 89.375, 123.299 100.237 C 117.312 108.740, 116.468 109.566, 115.446 107.913 C 114.720 106.738, 121.168 97.034, 143.629 65.500 C 160.771 41.432, 165.617 34.093, 169.708 26 C 173.617 18.268, 174.046 12.500, 170.961 9.189 C 168.800 6.869, 167.068 6.134, 168.747 8.250 C 169.293 8.938, 170.283 11.188, 170.947 13.250 C 172.400 17.759, 171.162 22.465, 167.325 27.025 C 164.543 30.332, 161.574 30.791, 158.209 28.434 C 155.488 26.528, 151.987 19.924, 152.036 16.790 C 152.081 13.925, 155.430 9.855, 160 7.110 C 163.591 4.953, 162.277 4.278, 158.259 6.217 M 159.130 11.544 C 154.111 15.767, 154.154 19.101, 159.299 24.750 C 161.920 27.628, 163.565 27.594, 165.512 24.623 C 168.318 20.339, 168.854 16.693, 167.264 12.706 C 165.494 8.268, 163.382 7.966, 159.130 11.544 M 130.278 52.954 C 130.559 54.028, 130.175 55.715, 129.426 56.704 C 128.677 57.692, 128.049 58.836, 128.032 59.247 C 127.973 60.619, 135.213 68, 136.616 68 C 138.340 68, 138.413 65.841, 136.750 64.066 C 135.722 62.968, 135.834 62.909, 137.385 63.731 C 138.828 64.496, 139.725 64.275, 141.216 62.784 C 143.105 60.895, 143.108 60.777, 141.331 58.811 C 140.324 57.696, 139.636 55.961, 139.802 54.955 C 140.174 52.707, 137.217 51, 132.949 51 C 130.284 51, 129.850 51.318, 130.278 52.954 M 35.536 63.500 C 35.927 67.350, 36.403 70.675, 36.595 70.889 C 36.787 71.102, 37.381 70.128, 37.915 68.724 C 38.937 66.035, 37.696 59.387, 35.820 57.500 C 35.160 56.837, 35.064 58.858, 35.536 63.500 M 32.195 68.500 C 32.215 70.150, 32.439 70.704, 32.693 69.731 C 32.947 68.758, 32.930 67.408, 32.656 66.731 C 32.382 66.054, 32.175 66.850, 32.195 68.500 M 104.506 87.990 C 103.717 89.267, 108.204 95.504, 110.980 96.989 C 114.575 98.913, 114.254 96.024, 110.393 91.712 C 106.067 86.880, 105.438 86.482, 104.506 87.990" stroke="none" fill="#f1ca43" fill-rule="evenodd"/></svg>